<?xml version="1.0" standalone="no"?>
<!DOCTYPE svg PUBLIC "-//W3C//DTD SVG 20010904//EN"
 "http://www.w3.org/TR/2001/REC-SVG-20010904/DTD/svg10.dtd">
<svg version="1.0" xmlns="http://www.w3.org/2000/svg"
 width="120.000000pt" height="120.000000pt" viewBox="0 0 120.000000 120.000000"
 preserveAspectRatio="xMidYMid meet">
<metadata>
Created by potrace 1.14, written by Peter Selinger 2001-2017
</metadata>
<g transform="translate(0.000000,120.000000) scale(0.100000,-0.100000)"
fill="#000000" stroke="none">
<path d="M505 1131 c-114 -32 -178 -79 -293 -215 -85 -100 -125 -207 -125
-326 2 -228 173 -424 399 -455 26 -3 50 -8 53 -10 3 -4 6 -30 10 -102 1 -21 6
-23 59 -23 45 0 68 6 110 30 28 17 52 35 52 41 0 6 4 8 8 5 10 -6 106 91 173
174 156 194 187 496 70 679 -111 172 -323 256 -516 202z m156 -171 c104 -31
194 -113 241 -216 16 -36 23 -74 26 -145 5 -108 -11 -186 -58 -286 -25 -54
-38 -68 -92 -103 -63 -41 -63 -41 -69 -18 -4 13 -7 43 -8 68 l-1 45 -83 1
c-165 3 -295 96 -353 254 -21 61 -21 181 1 245 24 70 48 100 101 125 104 51
196 60 295 30z"/>
<path d="M743 699 c-12 -4 -25 -20 -29 -35 -13 -49 60 -82 89 -40 25 37 -19
92 -60 75z"/>
<path d="M567 672 c-22 -25 -21 -45 3 -67 29 -27 74 -10 78 28 6 53 -46 77
-81 39z"/>
<path d="M416 667 c-22 -16 -25 -65 -5 -78 51 -32 111 29 69 71 -23 23 -39 25
-64 7z"/>
</g>
</svg>
